<svg width="49" height="49" viewBox="0 0 49 49" fill="none" xmlns="http://www.w3.org/2000/svg">
<path d="M0.401245 7.50682C0.401245 10.6268 2.41725 13.2668 5.20125 14.2748V37.5068C5.20125 39.0981 5.83339 40.6242 6.9586 41.7495C8.08382 42.8747 9.60995 43.5068 11.2012 43.5068H19.6012V48.3068L29.2012 41.1068L19.6012 33.9068V38.7068H11.2012C10.5292 38.7068 10.0012 38.1788 10.0012 37.5068V14.2748C12.7852 13.2908 14.8012 10.6508 14.8012 7.50682C14.8012 3.54682 11.5612 0.306824 7.60125 0.306824C3.64125 0.306824 0.401245 3.54682 0.401245 7.50682ZM7.60125 5.10682C8.92125 5.10682 10.0012 6.18682 10.0012 7.50682C10.0012 8.82682 8.92125 9.90682 7.60125 9.90682C6.28125 9.90682 5.20125 8.82682 5.20125 7.50682C5.20125 6.18682 6.28125 5.10682 7.60125 5.10682ZM43.6012 34.3388V11.1068C43.6012 9.51553 42.9691 7.9894 41.8439 6.86418C40.7187 5.73896 39.1925 5.10682 37.6012 5.10682H29.2012V0.306824L19.6012 7.50682L29.2012 14.7068V9.90682H37.6012C38.2732 9.90682 38.8012 10.4348 38.8012 11.1068V34.3388C36.0172 35.3228 34.0012 37.9628 34.0012 41.1068C34.0012 45.0668 37.2412 48.3068 41.2012 48.3068C45.1612 48.3068 48.4012 45.0668 48.4012 41.1068C48.4012 37.9868 46.3852 35.3468 43.6012 34.3388ZM41.2012 43.5068C39.8812 43.5068 38.8012 42.4268 38.8012 41.1068C38.8012 39.7868 39.8812 38.7068 41.2012 38.7068C42.5212 38.7068 43.6012 39.7868 43.6012 41.1068C43.6012 42.4268 42.5212 43.5068 41.2012 43.5068Z" fill="#FFB86C"/>
</svg>
